<svg xmlns="http://www.w3.org/2000/svg" width="168" height="37" fill="none"><path fill="#444" d="M15.7 24.5H14v-5.2H8v5.2H6.4V13H8v5.1H14v-5h1.6v11.4ZM26.3 13v1.3h-3.7v10.2H21V14.3h-3.7V13h9Zm7.3 7.4.2.4.1.4a6.4 6.4 0 0 1 .4-.9l3.9-7 .2-.2h1.5v11.4h-1.4v-8.4a8.6 8.6 0 0 1 0-.8l-3.9 7.2c-.1.2-.3.4-.6.4h-.2c-.2 0-.4-.2-.5-.4l-4-7.2a5.5 5.5 0 0 1 0 .8v8.4h-1.4V13h1.5l.2.3 4 7Zm10.6 2.8h5v1.3h-6.6V13h1.6v10.2Zm19.2 1.3h-1.2l-.3-.1-.2-.3-1.1-2.7h-5.2l-1 2.7-.2.3-.4.1h-1.2L57.2 13h1.6l4.6 11.5Zm-7.5-4.3h4.3l-1.8-4.6-.4-1.1a15 15 0 0 1-.3 1l-1.8 4.7ZM70 17.8v.2h-.5a3 3 0 0 0-1-.5l-.7-.1c-.4 0-.7 0-1 .2a2 2 0 0 0-.8.6l-.5 1a5 5 0 0 0-.1 1.2c0 .5 0 1 .2 1.4 0 .3.2.7.4 1a2 2 0 0 0 1.8.7l.8-.1a2.7 2.7 0 0 0 1-.6h.5l.4.6-1.3 1-1.7.2c-.5 0-1 0-1.4-.3-.4-.2-.8-.4-1.1-.8a4 4 0 0 1-.8-1.3c-.2-.5-.3-1-.3-1.8 0-.6.1-1.1.3-1.6.1-.5.4-1 .7-1.3.3-.4.7-.7 1.2-1a4 4 0 0 1 1.6-.2c.6 0 1.1 0 1.5.2.5.2.9.5 1.2.8l-.4.5Zm8 6.7h-1l-.2-.3-.2-.8-.6.5a3.4 3.4 0 0 1-2.2.7 3 3 0 0 1-.9-.1 2 2 0 0 1-1.2-1l-.2-1c0-.3.1-.7.3-1l.9-.7c.3-.3.9-.5 1.5-.6l2.3-.3v-.6c0-.6-.1-1-.4-1.4-.2-.3-.6-.5-1.2-.5l-.9.1-.6.3-.4.3-.4.2-.2-.1-.2-.2-.3-.5 1.5-1 1.7-.2c.5 0 .9 0 1.2.2a2.5 2.5 0 0 1 1.4 1.6c.2.3.2.8.2 1.2v5.2Zm-3.8-.9h.7a3 3 0 0 0 1.1-.6l.5-.5V21L75 21c-.5 0-.9.2-1.2.3l-.6.5a1 1 0 0 0-.2.6l.1.6.3.3.4.3h.5Zm11.6.9c-.2 0-.3-.1-.4-.3l-.1-1c-.4.4-.8.8-1.2 1a3 3 0 0 1-1.5.4 2.7 2.7 0 0 1-2.2-1l-.7-1.3a6.7 6.7 0 0 1 0-3.5c.2-.5.4-1 .7-1.3a3.2 3.2 0 0 1 2.6-1.2 2.9 2.9 0 0 1 2.2 1v-4.6h1.4v11.8H86Zm-2.8-1c.5 0 .9-.1 1.2-.4.4-.2.7-.5 1-.9v-3.9a2.2 2.2 0 0 0-1.9-1 2 2 0 0 0-1.7.9c-.4.5-.6 1.3-.6 2.3l.1 1.3c0 .4.2.7.4 1l.6.5 1 .2Zm9.2-7.2c.5 0 1 0 1.4.2a3 3 0 0 1 1.7 1.9c.2.4.3 1 .3 1.5v.4l-.4.2H90c0 .5 0 1 .2 1.3 0 .4.3.7.5 1l.8.5 1 .2a3.1 3.1 0 0 0 1.6-.4l.5-.3h.6l.4.6-.6.5a4.7 4.7 0 0 1-1.7.6 5 5 0 0 1-.9.1c-.6 0-1 0-1.5-.3a3.5 3.5 0 0 1-2-2.2 5.5 5.5 0 0 1-.1-3.4c.2-.5.4-1 .8-1.3l1.1-.8c.5-.2 1-.3 1.6-.3Zm0 1c-.6 0-1.2.2-1.6.6-.4.4-.6 1-.7 1.7h4.4l-.1-1a2 2 0 0 0-.4-.7l-.7-.4-.8-.2Zm5.2 7.2v-8.1h.9c.2 0 .3 0 .3.3l.1.8 1-.9c.4-.2.9-.3 1.3-.3.6 0 1 .1 1.4.4.3.3.6.7.7 1.3a2.6 2.6 0 0 1 1-1.3c.3-.2.5-.3.8-.3a3.3 3.3 0 0 1 2 0l.8.7.5 1 .2 1.2v5.2h-1.4v-5.2c0-.6-.2-1-.4-1.4-.3-.3-.7-.5-1.3-.5a1.8 1.8 0 0 0-1.2.5l-.4.6-.1.8v5.2h-1.4v-5.2c0-.6-.2-1.1-.4-1.4-.3-.3-.7-.5-1.2-.5l-1 .3-.8.8v6h-1.4Zm15.3 2.4-.2.2-.3.1h-1l1.4-3.2-3.4-7.6h1.6l.1.3 2.2 5.1.1.3.1.4.1-.4.1-.3 2.1-5.1.2-.2.3-.1h1.1l-4.5 10.5Z"/><g clip-path="url(#a)"><path fill="#666" d="M154.6 1.5h-.1L141 2.9v24.6l13.5 8 13.5-8V3l-13.4-1.4Zm11.6 25-11.7 7-11.7-7v-10l11.7 6.8v1.3l-8-4.7V21l8 4.8v1.3l-8-4.8v1.2l8 4.9 8.1-4.9v-5.2l3.6-2.1v10.2Zm0-11.5-3.2 1.8-1.5 1-7-4.3v1.2l6 3.6-.2.1-.8.5-5-3v1.3l3.9 2.3-1 .6-3-1.7v1.2l2 1.2-2 1.1-11.6-6.8 11.6-7 11.8 6.9Zm0-1.3-11.8-6.9-11.6 7V4.4l11.7-1.2 11.7 1.2v9.2Z"/></g><defs><clipPath id="a"><path fill="#fff" d="M141 1.5h27v34h-27z"/></clipPath></defs></svg>