<svg xmlns="http://www.w3.org/2000/svg" width="30" height="32" fill="none"><g clip-path="url(#a)"><path fill="#fff" d="M27.8 2.8a1 1 0 0 0-1-.8C22 2 10 3 5.2 10.4c-2.6 3.9-2.8 8.9-.7 15-.7 2-1 3.4-1 3.4 0 .5.3 1 .8 1.2h.2a1 1 0 0 0 .9-.8S7.7 18.8 16 12.8c.5-.3.6-.9.3-1.4a.9.9 0 0 0-1.3-.2 30 30 0 0 0-9.5 11.6c-1.2-4.6-.9-8.4 1-11.3 3.8-5.7 12.6-7.1 18-7.4A20 20 0 0 0 22.2 15c0 3.1-.9 5.5-2.5 7.1-2.6 2.6-6.9 2.9-10 2.6-.5 0-1 .4-1 1 0 .5.4 1 .9 1l2 .1c3.1 0 6.8-.7 9.4-3.2 2-2 3-4.9 3-8.6 0-9.1 3.3-11.1 3.3-11.1.4-.2.6-.7.5-1.1Z"/></g><defs><clipPath id="a"><path fill="#fff" d="M0 0h30v32H0z"/></clipPath></defs></svg>