<svg xmlns="http://www.w3.org/2000/svg" width="80" height="83" fill="none"><path fill="#fff" d="M65.7 36H14.4a3.3 3.3 0 0 1-3.3-3.3V23c0-1.8 1.5-3.3 3.3-3.3h51.3c1.8 0 3.2 1.5 3.2 3.3v9.8c0 1.8-1.4 3.3-3.2 3.3ZM14.4 22.1c-.4 0-.8.4-.8.8v9.8c0 .5.4.8.8.8h51.3c.4 0 .7-.3.7-.8V23c0-.4-.3-.8-.7-.8H14.4Z"/><path fill="#fff" d="M58.5 69.7h-37a6.3 6.3 0 0 1-6.2-6.3V34.8c0-.7.5-1.3 1.2-1.3s1.3.6 1.3 1.3v28.6c0 2 1.7 3.8 3.7 3.8h37c2 0 3.8-1.8 3.8-3.8V34.8c0-.7.5-1.3 1.2-1.3s1.3.6 1.3 1.3v28.6c0 3.4-2.8 6.3-6.3 6.3Z"/><path fill="#fff" d="M40 69.7c-.7 0-1.2-.6-1.2-1.3V34.8c0-.7.5-1.3 1.2-1.3s1.3.6 1.3 1.3v33.6c0 .7-.6 1.3-1.3 1.3ZM24.4 22.1c-3.9-2-5.4-7-3.2-11a8 8 0 0 1 11-3.2c5.9 3.2 9 12.3 9.2 12.7l-2.3.8s-3-8.5-8.2-11.3c-2.7-1.5-6-.5-7.5 2.2a5.6 5.6 0 0 0 2.2 7.6l-1.2 2.2Z"/><path fill="#fff" d="M55.6 22.1 54.4 20a5.6 5.6 0 0 0 2.3-7.6 5.5 5.5 0 0 0-7.6-2.2c-5 2.8-8 11.2-8.1 11.3l-2.4-.8c.2-.4 3.4-9.5 9.3-12.7a8 8 0 0 1 11 3.3 8 8 0 0 1-3.3 11ZM63.5 52.8h-47a1.3 1.3 0 0 1 0-2.5h47a1.3 1.3 0 0 1 0 2.5Z"/></svg>