<svg xmlns="http://www.w3.org/2000/svg" width="26" height="31" fill="none"><path fill="#fff" d="M5.5 0c-1 0-1 1.6 0 1.6h6.7v1.6C5.4 3.6 0 9.4 0 16.5c0 4 1.7 7.6 4.5 10 .5.5.5 1.2.1 1.7l-1.5 1.5c-.8.7.3 1.8 1 1l2-2c.4-.3.9-.4 1.3-.2a12.7 12.7 0 0 0 11 0c.5-.2 1 0 1.4.3l2 2c.6.6 1.6-.4 1-1l-1.5-1.5c-.4-.5-.4-1.2.1-1.7A13.5 13.5 0 0 0 26 16.5c0-7.1-5.4-12.9-12.2-13.3V1.6h6.6c1 0 1-1.6 0-1.6H5.5Zm-4 16.5C1.4 9.9 6.5 4.7 13 4.7s11.6 5.2 11.6 11.8c0 6.5-5.2 11.8-11.6 11.8-6.4 0-11.6-5.3-11.6-11.8Zm10.7-8.1c0-1.1 1.7-1.1 1.7 0V17a.8.8 0 0 1-.9.9.8.8 0 0 1-.8-.8V8.4Zm-5 2.6a1.2 1.2 0 0 0 1.2-1.2 1.1 1.1 0 0 0-1.2-1.1 1.2 1.2 0 0 0-1 1.1 1.1 1.1 0 0 0 1 1.2Zm11.6 0a1.2 1.2 0 0 0 1.1-1.2 1.1 1.1 0 0 0-1.1-1.1 1.2 1.2 0 0 0-1 1.1 1.1 1.1 0 0 0 1 1.2ZM8.4 23.6C8.4 25 6 25 6 23.6s2.3-1.5 2.3 0ZM13 27a1.2 1.2 0 0 0 1.2-.7 1.1 1.1 0 0 0-.7-1.5 1.2 1.2 0 0 0-1.2.3 1.1 1.1 0 0 0 .7 2ZM5 16.6a1.1 1.1 0 0 1-.8 1.2 1.2 1.2 0 0 1-1.5-.7A1.1 1.1 0 0 1 3 16a1.2 1.2 0 0 1 2 .7Zm17.2 1.2a1.2 1.2 0 0 0 1.2-.7 1.1 1.1 0 0 0-.7-1.5 1.2 1.2 0 0 0-1.2.3 1.1 1.1 0 0 0 .7 1.9ZM20 23.6c0 1.5-2.3 1.5-2.3 0s2.3-1.5 2.3 0Z"/></svg>